<svg width="24" height="24" viewBox="0 0 24 24" fill="none" xmlns="http://www.w3.org/2000/svg">
  <path d="M17.05 12.536C17.016 9.724 19.37 8.566 19.48 8.506C18.27 6.756 16.366 6.506 15.688 6.476C14.066 6.306 12.504 7.456 11.682 7.456C10.842 7.456 9.574 6.496 8.208 6.526C6.424 6.556 4.766 7.596 3.894 9.226C2.074 12.556 3.434 17.426 5.174 20.176C6.034 21.516 7.054 23.016 8.414 22.966C9.744 22.906 10.244 22.106 11.844 22.106C13.424 22.106 13.894 22.966 15.284 22.936C16.724 22.906 17.614 21.576 18.444 20.216C19.424 18.666 19.824 17.146 19.844 17.056C19.804 17.036 17.094 16.066 17.05 12.536Z" fill="black"/>
  <path d="M15.088 5.006C15.788 4.146 16.268 2.976 16.148 1.796C15.168 1.836 13.918 2.466 13.188 3.306C12.538 4.046 11.958 5.246 12.098 6.396C13.188 6.486 14.368 5.856 15.088 5.006Z" fill="black"/>
</svg>